<?xml version="1.0" encoding="UTF-8"?>
<svg version="1.1" xmlns="http://www.w3.org/2000/svg" width="756" height="756">
<path d="M0 0 C249.48 0 498.96 0 756 0 C756 249.48 756 498.96 756 756 C506.52 756 257.04 756 0 756 C0 506.52 0 257.04 0 0 Z " fill="#FEFEFE" transform="translate(0,0)"/>
<path d="M0 0 C0.86773499 -0.00235223 1.73546998 -0.00470446 2.62949997 -0.00712797 C5.56935431 -0.01384346 8.50916472 -0.01335898 11.44902611 -0.01294994 C13.56519875 -0.01624699 15.68137077 -0.01997222 17.79754198 -0.02409142 C23.63798825 -0.03413777 29.47842424 -0.03783244 35.31887794 -0.04048073 C41.60808422 -0.04437602 47.89728231 -0.05395491 54.18648338 -0.0626936 C68.66913494 -0.0815449 83.15178553 -0.09171762 97.63444631 -0.10015428 C104.78907094 -0.10435858 111.94369473 -0.10958088 119.09831866 -0.11483881 C143.58238446 -0.13273104 168.06645049 -0.14772745 192.55052185 -0.155159 C194.08816775 -0.15563376 195.62581366 -0.15610964 197.16345956 -0.15658666 C197.92600628 -0.15682303 198.68855299 -0.15705941 199.47420719 -0.15730295 C203.33775157 -0.15850417 207.20129594 -0.15971961 211.06484032 -0.16094494 C211.83157762 -0.16118509 212.59831492 -0.16142524 213.38828668 -0.16167267 C238.24895524 -0.16956597 263.10957609 -0.1929974 287.97022382 -0.22550088 C314.24502297 -0.25979063 340.5197942 -0.27950938 366.7946161 -0.28280324 C369.67848739 -0.28322079 372.56235866 -0.28370035 375.44622993 -0.28422642 C376.1563369 -0.28434961 376.86644386 -0.2844728 377.59806921 -0.28459973 C389.03149222 -0.28693291 400.46485988 -0.30259956 411.89826315 -0.32306826 C423.38926958 -0.34331381 434.88018482 -0.34847592 446.37121041 -0.33929763 C452.59795282 -0.33474125 458.82451535 -0.33671689 465.05123329 -0.35605907 C470.74974413 -0.37360793 476.44794275 -0.37276037 482.14645652 -0.35716178 C484.20978626 -0.35477309 486.27313715 -0.35917411 488.33643444 -0.37099043 C491.13893654 -0.38604801 493.94032361 -0.37647922 496.74279785 -0.36076355 C497.5458436 -0.37098576 498.34888936 -0.38120796 499.17626983 -0.39173993 C506.82915327 -0.29793195 513.25826977 2.79196452 518.74892235 8.13422108 C523.0133855 13.98124704 524.86991741 18.41675081 524.88314342 25.6925354 C524.88760127 26.83053626 524.89205911 27.96853712 524.89665204 29.14102286 C524.8963755 31.01701091 524.8963755 31.01701091 524.89609337 32.93089771 C524.89939331 34.2726217 524.90311916 35.6143447 524.90723485 36.95606643 C524.91724801 40.64656809 524.92097053 44.33705348 524.92362416 48.02756679 C524.9275292 52.00658126 524.93710735 55.98558287 524.94583702 59.96458912 C524.96559503 69.57520673 524.97566647 79.18582538 524.98456481 88.79645821 C524.9889485 93.32251203 524.99431508 97.84856468 524.99955368 102.37461758 C525.01656475 117.42034347 525.03105915 132.46606864 525.03830242 147.51180267 C525.0402123 151.41580869 525.04213264 155.3198147 525.04408836 159.22382069 C525.0445721 160.1941383 525.04505584 161.16445592 525.04555424 162.1641771 C525.05385547 177.88447148 525.07919449 193.60468979 525.11166904 209.32495096 C525.14473914 225.4650897 525.16275111 241.60518978 525.16594666 257.74536258 C525.16811172 266.8073033 525.17685992 275.86913306 525.20240784 284.93104076 C525.2241141 292.64810193 525.2321656 300.36502518 525.22244105 308.08211341 C525.21789622 312.01845697 525.21979306 315.95451597 525.2392025 319.8908205 C525.2568341 323.49776842 525.25583692 327.10422419 525.24030521 330.71117733 C525.23680753 332.62704119 525.2529555 334.54291022 525.26990968 336.45870227 C525.19930035 345.9302268 523.15846298 353.57811652 516.51765484 360.57713091 C507.0608371 368.90236832 496.02077158 367.8393303 484.16943932 367.76913929 C482.05531839 367.77490355 479.94120247 367.78284671 477.827097 367.79277551 C472.0293234 367.81362973 466.23196181 367.80333985 460.43418682 367.78784442 C454.17711666 367.77652923 447.92011724 367.79399445 441.66306114 367.80774403 C430.11826425 367.82869408 418.57365081 367.82687653 407.02885488 367.81318668 C396.36369224 367.80060218 385.69857766 367.79732853 375.03340912 367.8032999 C374.32559309 367.80368183 373.61777705 367.80406375 372.88851205 367.80445725 C370.01516932 367.80601398 367.14182661 367.80760598 364.26848393 367.80925607 C337.32288381 367.82454585 310.37736719 367.81069178 283.43177996 367.78377159 C259.49732893 367.76004153 235.5630109 367.76216943 211.62856102 367.78607655 C184.73031609 367.81285435 157.8321449 367.82346402 130.93388849 367.80801523 C128.06613228 367.80641167 125.19837605 367.80484746 122.33061981 367.8032999 C121.62451858 367.80290452 120.91841734 367.80250913 120.1909191 367.80210176 C109.53231007 367.79641656 98.87375438 367.80306168 88.21515274 367.81569767 C76.09549263 367.82999425 63.97602386 367.825938 51.85636967 367.79929395 C45.67195578 367.78614643 39.48781197 367.78101977 33.30340004 367.79753971 C27.64269515 367.81243214 21.98251085 367.80426196 16.32185323 367.77765195 C14.27355857 367.77206412 12.22521999 367.77491413 10.17695355 367.78703089 C-9.52044577 367.89462018 -9.52044577 367.89462018 -16.25107765 362.13422108 C-17.50017921 361.0746117 -17.50017921 361.0746117 -18.77451515 359.99359608 C-19.38553078 359.29750233 -19.9965464 358.60140858 -20.62607765 357.88422108 C-21.25256203 357.19843983 -21.8790464 356.51265858 -22.52451515 355.80609608 C-27.57153221 347.99578009 -27.68325797 339.91616626 -27.63875771 330.85016346 C-27.64293642 329.51649513 -27.64841688 328.18283036 -27.65507752 326.84917212 C-27.66948019 323.20410184 -27.66530377 319.55925866 -27.6579107 315.91417623 C-27.65316852 311.9754538 -27.66569806 308.03677977 -27.67592812 304.09807301 C-27.69310013 296.38993841 -27.69395956 288.68188539 -27.68871521 280.97373664 C-27.68466978 274.70781082 -27.6861215 268.44190906 -27.69146347 262.17598438 C-27.69221189 261.28336062 -27.69296031 260.39073685 -27.69373142 259.47106388 C-27.69526293 257.65757826 -27.69680127 255.84409265 -27.69834638 254.03060704 C-27.71206531 237.03524288 -27.70663771 220.03992479 -27.69516117 203.04456168 C-27.68522648 187.50240529 -27.69817461 171.96036791 -27.72209536 156.41822988 C-27.74648681 140.44968387 -27.7560943 124.48119329 -27.74944264 108.51262903 C-27.7459509 99.55137991 -27.74817966 90.59022234 -27.76569366 81.62898731 C-27.78041608 74.00169588 -27.78105044 66.3745605 -27.76362275 58.74727213 C-27.75511122 54.85748504 -27.75296681 50.9679767 -27.76827431 47.07820415 C-27.7821268 43.51399534 -27.77735166 39.95030395 -27.75803507 36.38612503 C-27.75250261 34.49337878 -27.76654187 32.60060616 -27.78138918 30.70791006 C-27.6978535 21.0258732 -25.48447582 13.8555178 -18.9034214 6.63812733 C-13.1507442 1.40223909 -7.5606671 -0.01372817 0 0 Z " fill="#000000" transform="translate(125.25107765197754,195.86577892303467)"/>
<path d="M0 0 C249.48 0 498.96 0 756 0 C756 249.48 756 498.96 756 756 C506.52 756 257.04 756 0 756 C0 506.52 0 257.04 0 0 Z M350.9375 11.875 C349.66221436 11.95339111 348.38692871 12.03178223 347.07299805 12.11254883 C335.89407501 12.87506382 324.76968226 13.78320906 314 17 C312.29704306 17.30280541 310.58816384 17.57412399 308.875 17.8125 C292.08276622 20.53104345 276.01417744 25.3625269 260 31 C258.66426587 31.46152651 257.32834486 31.92251273 255.9921875 32.3828125 C166.8226414 63.54315938 92.89775789 132.55795328 51.56835938 216.92236328 C45.79011274 229.03890836 40.5797256 241.38221394 36 254 C35.7426709 254.70479492 35.4853418 255.40958984 35.22021484 256.13574219 C27.41160051 277.78622576 22.67463732 300.31965652 19 323 C18.75008301 324.46977295 18.75008301 324.46977295 18.49511719 325.96923828 C9.0536525 383.58562993 17.87398772 443.09324623 36 498 C36.25023926 498.763125 36.50047852 499.52625 36.75830078 500.3125 C38.97291524 506.99908434 41.49589341 513.30794776 44.76953125 519.54296875 C46.06480826 522.12941077 47.1268366 524.74676443 48.1875 527.4375 C51.47336775 535.46160965 55.60482874 543.03816533 59.72998047 550.65429688 C60.53303264 552.13751972 61.33206676 553.62293131 62.12548828 555.11132812 C74.14451767 577.64081428 89.61302989 598.36173272 106.57470703 617.39550781 C107.77875416 618.75093737 108.96733998 620.12007787 110.15234375 621.4921875 C121.36138253 634.32154278 133.54928077 646.54065378 147 657 C148.87769548 658.60101074 150.75254045 660.20536873 152.625 661.8125 C164.3213154 671.56952994 177.11080909 679.91771911 190 688 C191.05445313 688.67675781 192.10890625 689.35351562 193.1953125 690.05078125 C201.52562704 695.3211891 210.12828197 699.73805793 219 704 C220.19012695 704.57548584 220.19012695 704.57548584 221.40429688 705.16259766 C234.52089955 711.4980943 234.52089955 711.4980943 248 717 C249.26720685 717.50189837 250.53410281 718.00458202 251.80078125 718.5078125 C272.97115472 726.76307545 295.54759192 732.9880361 318.00097656 736.52636719 C319.99560239 736.84137648 321.987335 737.175303 323.97558594 737.52832031 C361.59346953 744.14992684 401.38854399 743.13279119 439 737 C441.30851077 736.65959303 443.61710309 736.31973863 445.92578125 735.98046875 C450.41358549 735.28789589 454.7503096 734.42611716 459.125 733.1875 C461.00638672 732.66349609 461.00638672 732.66349609 462.92578125 732.12890625 C463.58271973 731.94473145 464.2396582 731.76055664 464.91650391 731.57080078 C467.11919385 730.9673453 469.32883459 730.39979879 471.54296875 729.83984375 C490.74003743 724.96974417 510.01803353 718.91678991 527.95703125 710.4375 C530.27707338 709.3415109 532.60288186 708.28666336 534.94921875 707.25 C561.85473724 695.16966849 587.23908215 678.7075096 610 660 C610.79881592 659.34765381 610.79881592 659.34765381 611.61376953 658.68212891 C626.73311472 646.28839556 641.30071537 632.87771942 654 618 C654.92766106 616.9355662 655.8561132 615.87182155 656.78515625 614.80859375 C676.16923478 592.55003463 693.09120153 567.54938824 706 541 C706.602749 539.80721548 707.20822866 538.615807 707.81640625 537.42578125 C711.06555324 531.04678641 714.09421975 524.65621627 716.76171875 518.01171875 C717.76207255 515.5786816 718.81858825 513.19688653 719.91015625 510.8046875 C731.52251745 484.7478798 737.83814155 455.10546066 742 427 C742.16556396 425.91332031 742.16556396 425.91332031 742.33447266 424.8046875 C744.82972551 408.26921665 745.26984087 391.81481641 745.3125 375.125 C745.31578308 374.0723999 745.31906616 373.0197998 745.32244873 371.93530273 C745.34343557 351.05458673 744.29727676 330.29505189 739 310 C738.65778185 307.9213416 738.34355114 305.83780849 738.0625 303.75 C737.10784315 297.35890034 735.67978936 291.23537809 734 285 C733.54920048 283.27090597 733.09870677 281.54173219 732.6484375 279.8125 C730.26215209 270.74851461 727.830503 261.83174453 724.28125 253.140625 C723.04270284 250.10467405 721.89828125 247.04814756 720.77001953 243.97021484 C716.07570758 231.19704262 710.17899365 219.10918841 704 207 C703.68691895 206.38108887 703.37383789 205.76217773 703.05126953 205.12451172 C692.14720414 183.65695259 678.41826533 163.47815229 663 145 C662.57477051 144.48598633 662.14954102 143.97197266 661.71142578 143.44238281 C656.92273536 137.65974999 652.14801646 131.91970948 646.7175293 126.72021484 C644.97162291 124.97157854 643.38029648 123.14892528 641.78125 121.265625 C638.16185137 117.10446015 634.292689 113.30890232 630.25 109.5625 C629.5482666 108.90926758 628.8465332 108.25603516 628.12353516 107.58300781 C622.60013543 102.47845008 616.91657171 97.64455063 611 93 C609.90179899 92.12177452 608.80417332 91.24282927 607.70703125 90.36328125 C545.05849191 40.34988912 465.61540871 10.76235479 385.1875 10.8125 C384.50889923 10.81243958 383.83029846 10.81237915 383.13113403 10.81231689 C372.37805874 10.82573308 361.66902922 11.20481142 350.9375 11.875 Z " fill="#000000" transform="translate(0,0)"/>
<path d="M0 0 C7.29340487 3.49504561 14.22131701 7.41863294 21.125 11.625 C23.33546648 12.96171671 25.5464289 14.29761357 27.7578125 15.6328125 C28.33654114 15.98269226 28.91526978 16.33257202 29.51153564 16.6930542 C35.96941129 20.593848 42.45961205 24.43985834 48.95037842 28.2855835 C60.147658 34.92005751 71.32692174 41.58302683 82.47949219 48.29248047 C88.28206758 51.77981148 94.0958437 55.24736518 99.921875 58.6953125 C100.60386963 59.09899551 101.28586426 59.50267853 101.98852539 59.91859436 C102.67487061 60.32484543 103.36121582 60.7310965 104.06835938 61.1496582 C105.46225978 61.97473802 106.85613998 62.79985196 108.25 63.625 C108.93747314 64.03197113 109.62494629 64.43894226 110.33325195 64.85824585 C119.45115049 70.25944579 128.50274592 75.75036194 137.48901367 81.36865234 C144.7595284 85.89542781 152.1520616 90.19715474 159.56396484 94.48730469 C167.47884702 99.08124844 175.31225105 103.7979778 183.125 108.5625 C193.96077029 115.16810677 204.85235603 121.6705016 215.78955078 128.10693359 C221.86409174 131.68883402 227.9290269 135.28694149 233.99353027 138.88580322 C236.15445362 140.16789337 238.31599029 141.44894513 240.47753906 142.72998047 C241.81188915 143.52174217 243.14620084 144.31356858 244.48046875 145.10546875 C245.09506454 145.46945267 245.70966034 145.83343658 246.34288025 146.20845032 C248.93962905 147.75111037 251.48593977 149.32395985 254 151 C258.80295237 150.80788191 262.25012689 148.09793303 266.0625 145.4375 C267.40749423 144.51944649 268.75254698 143.60147871 270.09765625 142.68359375 C270.76039551 142.22710449 271.42313477 141.77061523 272.10595703 141.30029297 C274.719273 139.50620675 277.35867783 137.75251905 280 136 C280.97839844 135.34773437 281.95679688 134.69546875 282.96484375 134.0234375 C290.8046875 128.796875 298.64453125 123.5703125 306.484375 118.34375 C307.49741699 117.66836182 308.51045898 116.99297363 309.55419922 116.29711914 C311.76666479 114.82219736 313.97921786 113.34740772 316.19189453 111.87280273 C322.685091 107.54517745 329.17652965 103.21493889 335.6655426 98.88104248 C339.34064996 96.4267471 343.01641373 93.97343577 346.69223022 91.52020264 C348.48908995 90.32064491 350.28567084 89.12066938 352.0819397 87.92022705 C363.24194315 80.46237609 374.44594615 73.07870224 385.71313477 65.78369141 C391.1782148 62.24269647 396.59252466 58.62829165 402 55 C403.99959513 53.66605956 405.9996035 52.33273839 408 51 C408.99386719 50.33742188 409.98773437 49.67484375 411.01171875 48.9921875 C413.9453125 47.03645833 416.87890625 45.08072917 419.8125 43.125 C420.75891357 42.49376221 421.70532715 41.86252441 422.68041992 41.2121582 C424.82685314 39.78178155 426.97432583 38.35296295 429.12304688 36.92602539 C435.69504754 32.55872928 442.24530821 28.1614773 448.77079773 23.72491455 C452.46099001 21.2185363 456.15820766 18.72263261 459.85620117 16.2277832 C461.76638978 14.93560164 463.67355653 13.63894319 465.57788086 12.33813477 C468.36051346 10.43883256 471.15355726 8.55583425 473.94921875 6.67578125 C474.80021652 6.08952469 475.65121429 5.50326813 476.52799988 4.89924622 C477.32015396 4.37086655 478.11230804 3.84248688 478.9284668 3.2980957 C479.96646675 2.59388237 479.96646675 2.59388237 481.0254364 1.8754425 C483 1 483 1 485.16871643 1.2517395 C487.65390284 2.267184 488.27123425 3.49495557 489.578125 5.81640625 C490.01640625 6.58017578 490.4546875 7.34394531 490.90625 8.13085938 C491.3496875 8.93330078 491.793125 9.73574219 492.25 10.5625 C492.70890625 11.36880859 493.1678125 12.17511719 493.640625 13.00585938 C494.77208247 14.99769597 495.89115045 16.99551682 497 19 C494.40541567 21.71762629 491.83871597 23.93284054 488.69726562 25.98925781 C487.85538696 26.54373596 487.0135083 27.09821411 486.14611816 27.66949463 C484.78988342 28.55239166 484.78988342 28.55239166 483.40625 29.453125 C482.4637439 30.07217712 481.52123779 30.69122925 480.5501709 31.32904053 C477.53636971 33.30719365 474.51831714 35.27874594 471.5 37.25 C469.49970613 38.56074956 467.49970304 39.87194298 465.5 41.18359375 C462.59750325 43.08719178 459.6947644 44.99040868 456.79077148 46.89172363 C450.17036757 51.22665813 443.57330761 55.59392093 437 60 C435.00028871 61.3337663 433.00031325 62.66713666 431 64 C430.00613281 64.66257812 429.01226563 65.32515625 427.98828125 66.0078125 C419.1875 71.875 419.1875 71.875 416.31787109 73.78735352 C414.17511626 75.21632975 412.03320896 76.64657806 409.89233398 78.07836914 C402.40397923 83.08412085 394.89261255 88.05406057 387.3671875 93.00390625 C386.43423355 93.61770142 385.5012796 94.23149658 384.54005432 94.8638916 C380.67918341 97.40362162 376.81808641 99.94300311 372.95556641 102.48022461 C370.09183629 104.36169867 367.22917499 106.24478258 364.3671875 108.12890625 C363.4578949 108.72716217 362.54860229 109.32541809 361.61175537 109.94180298 C355.41678342 114.0304504 349.30766055 118.22149555 343.27001953 122.53881836 C341 124 341 124 339 124 C343.82624549 130.33613235 348.94603545 136.07474258 354.63671875 141.64453125 C357.24851852 144.24769697 359.65118298 146.96889042 362.05078125 149.765625 C368.30043233 156.92955369 374.88558069 163.81184163 381.37915039 170.75415039 C386.5517991 176.28435225 391.68713208 181.83894032 396.734375 187.484375 C399.93352057 191.03652974 403.18029688 194.54382504 406.42724609 198.05224609 C409.71537873 201.60566772 412.98700159 205.17344018 416.25 208.75 C420.82834897 213.75300743 425.46947226 218.69381247 430.125 223.625 C435.10894075 228.90541776 440.04833685 234.21455111 444.8828125 239.6328125 C451.5450829 247.08177166 458.35800676 254.39225592 465.1875 261.6875 C470.20944452 267.05205107 475.16798319 272.46268881 480 278 C476.19985226 282.554787 472.34334454 286.95279259 468 291 C466 291 466 291 464.6953125 289.70703125 C464.17710937 289.08183594 463.65890625 288.45664062 463.125 287.8125 C459.91793983 284.03987943 456.61760636 280.37843182 453.25 276.75 C452.2030492 275.61986188 451.15617482 274.48965297 450.109375 273.359375 C449.58923828 272.79798828 449.06910156 272.23660156 448.53320312 271.65820312 C446.18018589 269.11334755 443.83986899 266.55693964 441.5 264 C433.31472841 255.06300482 425.09249603 246.16184305 416.8125 237.3125 C413.02367537 233.26258813 409.25582141 229.20013075 405.5625 225.0625 C401.61277173 220.64028087 397.56272866 216.31802039 393.5 212 C388.6773639 206.87372523 383.90456289 201.71348659 379.21484375 196.46484375 C373.28044641 189.86060262 367.22644521 183.36288601 361.14453125 176.89453125 C360.48727051 176.19537598 359.83000977 175.4962207 359.15283203 174.77587891 C357.88305131 173.42659887 356.61198167 172.07853014 355.33935547 170.73193359 C351.7000832 166.86712338 348.16658748 162.929128 344.68530273 158.92163086 C341.65184994 155.46280036 338.50491778 152.10963855 335.35888672 148.75341797 C332.61485278 145.80988047 330.06141995 142.83284579 327.625 139.625 C326.75875 138.75875 325.8925 137.8925 325 137 C320.57246893 137.22257969 317.87329135 138.42375446 314.375 141.0625 C310.67544115 143.77624826 306.95075456 146.40368873 303.125 148.9375 C302.24070312 149.52402344 301.35640625 150.11054688 300.4453125 150.71484375 C299.93524658 151.05314209 299.42518066 151.39144043 298.8996582 151.73999023 C298.272771 152.15579346 297.64588379 152.57159668 297 153 C296.15332764 153.56082275 295.30665527 154.12164551 294.43432617 154.69946289 C289.54571618 157.94651759 284.67447193 161.21238311 279.84588623 164.54786682 C277.51412301 166.15646432 275.17438256 167.75323563 272.83374023 169.34887695 C271.63686061 170.16895809 270.44357348 170.99430337 269.25366211 171.82446289 C267.50257531 173.04427048 265.73936877 174.24438313 263.97265625 175.44140625 C262.94406494 176.14982666 261.91547363 176.85824707 260.85571289 177.58813477 C258 179 258 179 255.53979492 178.95532227 C252.27326328 177.72664416 249.3586011 176.0838979 246.390625 174.2734375 C245.75523804 173.8938237 245.11985107 173.5142099 244.46520996 173.12309265 C242.38927405 171.88058062 240.31968424 170.62789283 238.25 169.375 C236.80541093 168.50771904 235.36041972 167.64110757 233.91503906 166.77514648 C230.99300731 165.02289273 228.07348958 163.26656792 225.15625 161.50634766 C221.45234394 159.2715144 217.74301944 157.04596859 214.03125 154.82421875 C212.97478271 154.1914502 211.91831543 153.55868164 210.82983398 152.90673828 C208.7931828 151.68716927 206.75624091 150.46808558 204.71899414 149.24951172 C199.84030525 146.32591371 194.9814448 143.37599397 190.15234375 140.37109375 C189.22905273 139.80189209 188.30576172 139.23269043 187.35449219 138.64624023 C185.62602912 137.57932093 183.90357504 136.50257985 182.18847656 135.41430664 C181.42889648 134.94758545 180.66931641 134.48086426 179.88671875 134 C179.22889404 133.5875 178.57106934 133.175 177.89331055 132.75 C175.45480801 131.78403226 174.40804193 132.00981364 172 133 C170.31720735 134.25723472 170.31720735 134.25723472 168.79296875 135.87890625 C168.20580078 136.47123047 167.61863281 137.06355469 167.01367188 137.67382812 C166.1097168 138.6087207 166.1097168 138.6087207 165.1875 139.5625 C164.30094727 140.45678711 164.30094727 140.45678711 163.39648438 141.36914062 C160.36906014 144.44938796 157.459061 147.59524613 154.64453125 150.87109375 C149.74754144 156.52726429 144.35602994 161.68908901 139.02734375 166.93359375 C135.40701013 170.51906059 131.84892946 174.09941892 128.53125 177.96875 C123.49390761 183.8368736 117.88827496 189.15483362 112.3828125 194.578125 C108.00714516 198.91389264 103.80953594 203.30124673 99.80078125 207.9765625 C95.45582451 212.85874816 90.68329623 217.35119502 86.02734375 221.93359375 C81.74495126 226.17474329 77.64975845 230.48023202 73.72460938 235.05273438 C70.01697313 239.2390462 65.95123428 243.08614569 61.9609375 247 C58.76840863 250.15554977 55.67172488 253.32627262 52.7578125 256.7421875 C47.7887682 262.51169044 42.28963757 267.77900559 36.875 273.125 C34.74439748 275.22877035 32.61730519 277.33600338 30.4921875 279.4453125 C29.55745605 280.36844238 28.62272461 281.29157227 27.65966797 282.24267578 C24.94111378 285.06104837 22.468766 287.96336752 20 291 C16.58139248 289.56177525 14.72092162 287.78464276 12.375 284.9375 C10.04514448 282.02124288 10.04514448 282.02124288 7 280 C7.55871514 276.15389802 9.21623046 274.44353173 11.96484375 271.77734375 C12.76470703 270.99166016 13.56457031 270.20597656 14.38867188 269.39648438 C15.22978516 268.58501953 16.07089844 267.77355469 16.9375 266.9375 C18.59457564 265.32379662 20.24961664 263.70800054 21.90234375 262.08984375 C22.63960693 261.37691162 23.37687012 260.66397949 24.13647461 259.92944336 C26.16947904 257.93974967 26.16947904 257.93974967 28 255 C28.66 255 29.32 255 30 255 C30.23178955 254.44151367 30.4635791 253.88302734 30.70239258 253.30761719 C32.34019671 250.39500672 34.37538715 248.41809206 36.76171875 246.078125 C37.23060013 245.61444519 37.69948151 245.15076538 38.18257141 244.67303467 C39.67951598 243.19382975 41.18295749 241.72147299 42.6875 240.25 C44.65321238 238.32120693 46.61562398 236.38914552 48.57421875 234.453125 C49.290298 233.74542969 49.290298 233.74542969 50.02084351 233.0234375 C53.27892796 229.77929978 56.3238422 226.41121832 59.30786133 222.91699219 C63.19831794 218.50956681 67.49141021 214.47265795 71.68359375 210.35546875 C75.05844822 207.01723115 78.34474627 203.66532461 81.4375 200.0625 C86.29455688 194.41721218 91.66865329 189.28661769 96.97265625 184.06640625 C100.5721823 180.50154658 104.11213268 176.94473001 107.40625 173.09375 C112.41450294 167.25951342 117.98578029 161.9577193 123.45703125 156.56347656 C128.57897327 151.50711196 133.5904137 146.42481663 138.27050781 140.95214844 C141.62330964 137.16770414 145.27042279 133.66742933 148.875 130.125 C150.39550816 128.62991839 151.91385411 127.13263356 153.4296875 125.6328125 C154.42331299 124.65658936 154.42331299 124.65658936 155.43701172 123.66064453 C157.08544452 122.06857485 157.08544452 122.06857485 158 120 C157.28352295 119.73010254 156.5670459 119.46020508 155.82885742 119.18212891 C152.98557338 117.99397137 150.40881166 116.62147451 147.73828125 115.0859375 C146.71508789 114.49796387 145.69189453 113.90999023 144.63769531 113.30419922 C143.54038086 112.66756348 142.44306641 112.03092773 141.3125 111.375 C140.74398315 111.0463092 140.17546631 110.71761841 139.58972168 110.37896729 C129.77460347 104.70053733 120.09955408 98.80971588 110.46069336 92.83666992 C101.09532364 87.03704986 91.63080216 81.42203664 82.1328125 75.84326172 C75.87191595 72.15952037 69.62276008 68.45596633 63.375 64.75 C62.35105637 64.14280624 62.35105637 64.14280624 61.306427 63.52334595 C51.77173556 57.86663032 42.27671212 52.14874658 32.8125 46.375 C18.6478528 37.73450386 4.33972369 29.34589599 -10 21 C-8.90330958 17.55630673 -7.78240358 14.30958078 -6.0546875 11.1328125 C-5.70019531 10.47539062 -5.34570312 9.81796875 -4.98046875 9.140625 C-4.61566406 8.47546875 -4.25085938 7.8103125 -3.875 7.125 C-3.50246094 6.43664062 -3.12992187 5.74828125 -2.74609375 5.0390625 C-1.83500474 3.35705202 -0.91809685 1.67819564 0 0 Z " fill="#FBFBFB" transform="translate(129,234)"/>
</svg>
